# xmcd
#
# Track frame offsets:
#	150
#	20500
#	38358
#	57416
#	74207
#	90306
#	109225
#	126304
#	143059
#	163039
#	183348
#	192942
#	209853
#	228211
#	245337
#	260675
#	277715
#	295605
#	317939
#
# Disc length: 4529 seconds
#
# Revision: 2
# Processed by: cddbd v1.5.2PL0 Copyright (c) Steve Scherf et al.
# Submitted via: EasyCDDAExtractor 12.0.1.1
#
DISCID=1a11af13
DTITLE=Various Artist - Ultimate Slow Jams CD1
DYEAR=1900
DGENRE=R&B
TTITLE0=Calvin Richardson - There Goes My Baby
TTITLE1=Calvin Richardson - Dont Stop
TTITLE2=Omarion - Icebox
TTITLE3=Tyrese - Turn Ya Out
TTITLE4=Mario Barrett - How Do I Breathe
TTITLE5=Beyonce - Irreplaceable(Remix)
TTITLE6=Tamia - Cant Get Enough Of You
TTITLE7=Jojo - Like That
TTITLE8=Ciara - Promise
TTITLE9=Bobby Valentino - Everytime They Come Around
TTITLE10=Bobby Valentino - Where You Belong
TTITLE11=Ruben Studdard - Our Story
TTITLE12=Carl Thomas - I Just Thought
TTITLE13=Ginuwine - Slow It Down
TTITLE14=Wingo (Of Jagged Edge) - I Try
TTITLE15=Ryan Leslie - Golden Days
TTITLE16=Boyz II Men - Perfect Love Song
TTITLE17=Kenny Lattimore and Chante Moore - Make Me Like The Moon
TTITLE18=Kelly Rowland - You Will Win
EXTD=
EXTT0=
EXTT1=
EXTT2=
EXTT3=
EXTT4=
EXTT5=
EXTT6=
EXTT7=
EXTT8=
EXTT9=
EXTT10=
EXTT11=
EXTT12=
EXTT13=
EXTT14=
EXTT15=
EXTT16=
EXTT17=
EXTT18=
PLAYORDER=
